HIERARCHY
ROOT Hips
{
	OFFSET 0.000000 0.000000 0.000000 
	CHANNELS 6 Xposition Yposition Zposition Zrotation Yrotation Xrotation
	JOINT LeftUpLeg
	{
		OFFSET 1.363060 -1.794630 0.839290 
		CHANNELS 3 Zrotation Yrotation Xrotation
		JOINT LeftLeg
		{
			OFFSET 2.448110 -6.726130 0.000000 
			CHANNELS 3 Zrotation Yrotation Xrotation
			JOINT LeftFoot
			{
				OFFSET 2.562200 -7.039590 0.000000 
				CHANNELS 3 Zrotation Yrotation Xrotation
				JOINT LeftToeBase
				{
					OFFSET 0.157640 -0.433110 2.322550 
					CHANNELS 3 Zrotation Yrotation Xrotation
					End Site
					{
						OFFSET 0.000000 0.000000 0.000000 
					}
				}
			}
		}
	}
	JOINT RightUpLeg
	{
		OFFSET -1.305520 -1.794630 0.839290 
		CHANNELS 3 Zrotation Yrotation Xrotation
		JOINT RightLeg
		{
			OFFSET -2.542530 -6.985550 0.000000 
			CHANNELS 3 Zrotation Yrotation Xrotation
			JOINT RightFoot
			{
				OFFSET -2.568260 -7.056230 0.000000 
				CHANNELS 3 Zrotation Yrotation Xrotation
				JOINT RightToeBase
				{
					OFFSET -0.164730 -0.452590 2.363150 
					CHANNELS 3 Zrotation Yrotation Xrotation
					End Site
					{
						OFFSET 0.000000 0.000000 0.000000 
					}
				}
			}
		}
	}
	JOINT Spine
	{
		OFFSET 0.028270 2.035590 -0.193380 
		CHANNELS 3 Zrotation Yrotation Xrotation
		JOINT Spine1
		{
			OFFSET 0.056720 2.048850 -0.042750 
			CHANNELS 3 Zrotation Yrotation Xrotation
			JOINT Neck1
			{
				OFFSET -0.054170 1.746240 0.172020 
				CHANNELS 3 Zrotation Yrotation Xrotation
				JOINT Head
				{
					OFFSET 0.104070 1.761360 -0.123970 
					CHANNELS 3 Zrotation Yrotation Xrotation
					End Site
					{
						OFFSET 0.000000 0.000000 0.000000 
					}
				}
			}
			JOINT LeftArm
			{
				OFFSET 3.362410 1.200890 -0.311210 
				CHANNELS 3 Zrotation Yrotation Xrotation
				JOINT LeftForeArm
				{
					OFFSET 4.983000 -0.000000 -0.000000 
					CHANNELS 3 Zrotation Yrotation Xrotation
					JOINT LeftHand
					{
						OFFSET 3.483560 -0.000000 -0.000000 
						CHANNELS 3 Zrotation Yrotation Xrotation
						JOINT LeftHandIndex1
						{
							OFFSET 0.715260 -0.000000 -0.000000 
							CHANNELS 3 Zrotation Yrotation Xrotation
							End Site
							{
								OFFSET 0.000000 0.000000 0.000000 
							}
						}
					}
				}
			}
			JOINT RightArm
			{
				OFFSET -3.136600 1.374050 -0.404650 
				CHANNELS 3 Zrotation Yrotation Xrotation
				JOINT RightForeArm
				{
					OFFSET -5.241900 -0.000000 -0.000000 
					CHANNELS 3 Zrotation Yrotation Xrotation
					JOINT RightHand
					{
						OFFSET -3.444170 -0.000000 -0.000000 
						CHANNELS 3 Zrotation Yrotation Xrotation
						JOINT RightHandIndex1
						{
							OFFSET -0.622530 -0.000000 -0.000000 
							CHANNELS 3 Zrotation Yrotation Xrotation
							End Site
							{
								OFFSET 0.000000 0.000000 0.000000 
							}
						}
					}
				}
			}
		}
	}
}
MOTION
Frames: 15
Frame Time: 0.041667
50.814544 17.233686 -8.645797 -5.313789 -82.701141 6.633216 -20.400489 0.144370 -1.322769 0.070893 4.181992 13.596891 -0.194585 3.635741 -7.869411 0.203600 -2.905500 -8.015700 29.423309 3.173003 -6.178171 -3.416361 -9.750821 29.573024 -1.560872 -1.714495 -24.460394 -1.061800 -6.551500 18.393200 0.728512 -1.213082 -0.909443 0.303118 -0.978388 7.866254 7.105696 -5.230056 9.483082 3.044500 -2.329200 6.049700 -77.084448 -4.467940 21.959464 12.059674 -19.813199 -3.034593 -1.205565 -0.481550 -8.552589 -7.125000 0.000000 0.000000 70.914714 1.721805 17.932575 -12.805954 22.592916 -3.222472 0.206376 -0.666781 -0.916195 7.125000 0.000000 0.000000 
50.812702 17.233686 -8.645490 -5.700243 -82.717156 7.015364 -20.345265 0.159140 -1.330189 0.074985 4.192060 13.629366 -0.190898 3.612467 -7.893210 0.200800 -2.885700 -7.960700 29.493487 3.243205 -6.145490 -3.412401 -9.746412 29.554498 -1.559558 -1.777256 -24.484972 -1.058100 -6.540400 18.360600 0.731505 -1.213321 -0.910954 0.312209 -0.977982 7.830393 7.145150 -5.228050 9.455643 3.082900 -2.330000 6.022800 -77.089969 -4.439469 22.007831 12.067306 -19.821927 -3.035494 -1.203515 -0.478573 -8.619592 -7.125000 0.000000 0.000000 70.926708 1.702587 17.951752 -12.818024 22.607486 -3.225284 0.205006 -0.665420 -0.969295 7.125000 0.000000 0.000000 
50.810451 17.233482 -8.641295 -5.471240 -82.744611 6.805441 -20.408725 0.101299 -1.397369 0.089346 4.249235 13.780223 -0.185736 3.625912 -8.012891 0.196700 -2.856000 -7.878200 29.429649 3.188675 -6.130487 -3.400503 -9.720492 29.478060 -1.550665 -1.743851 -24.396283 -1.060000 -6.545900 18.377000 0.727091 -1.205147 -0.912104 0.294848 -0.972978 7.834830 7.108898 -5.218550 9.460832 3.052200 -2.325600 6.024200 -77.104442 -4.438396 22.011520 12.063671 -19.816914 -3.033480 -1.202821 -0.478849 -8.598677 -7.125000 0.000000 0.000000 70.937039 1.667162 17.957187 -12.846255 22.640853 -3.233227 0.204076 -0.662452 -1.076717 7.125000 0.000000 0.000000 
50.808098 17.233993 -8.649071 -7.608615 -82.721801 8.900553 -20.060453 0.113119 -1.455973 0.105578 4.284487 13.896787 -0.182408 3.602786 -8.041256 0.202000 -2.894000 -7.983700 29.859903 3.512233 -5.968989 -3.382486 -9.705560 29.403605 -1.554438 -2.072845 -24.611362 -1.037600 -6.478500 18.179200 0.753986 -1.200785 -0.905637 0.337507 -0.974966 7.828049 7.126772 -5.222213 9.452520 3.063700 -2.326900 6.021000 -77.102821 -4.453150 22.008905 12.064758 -19.821569 -3.036118 -1.205222 -0.478335 -8.588220 -7.125000 0.000000 0.000000 70.961398 1.698133 17.943085 -12.844323 22.631376 -3.230838 0.204883 -0.662093 -1.116425 7.125000 0.000000 0.000000 
50.804108 17.233891 -8.651117 -8.485490 -82.718305 9.750548 -19.925189 0.115430 -1.486146 0.118045 4.318676 14.000038 -0.177241 3.580272 -8.095230 0.203100 -2.901800 -8.005500 30.029952 3.627574 -5.861324 -3.369609 -9.686196 29.336162 -1.552212 -2.250598 -24.694049 -1.009900 -6.394200 17.932500 0.764673 -1.196972 -0.899134 0.357281 -0.975825 7.842083 7.127702 -5.218776 9.448069 3.062300 -2.324800 6.017900 -77.105524 -4.463982 22.015313 12.064440 -19.823390 -3.036819 -1.206031 -0.478090 -8.590825 -7.125000 0.000000 0.000000 70.978717 1.704510 17.944425 -12.855225 22.641259 -3.233040 0.204730 -0.660630 -1.183818 7.125000 0.000000 0.000000 
50.799299 17.233584 -8.652242 -9.101370 -82.715912 10.338846 -19.831615 0.121653 -1.510454 0.130037 4.353544 14.103672 -0.171022 3.549913 -8.150985 0.204700 -2.913300 -8.037600 30.148301 3.695739 -5.753737 -3.356949 -9.663189 29.263135 -1.547947 -2.417910 -24.755951 -0.974100 -6.283100 17.608000 0.772259 -1.193771 -0.890553 0.374616 -0.977197 7.871572 7.124803 -5.214197 9.445104 3.057200 -2.321800 6.016400 -77.107786 -4.479504 22.022512 12.064782 -19.826326 -3.037836 -1.206864 -0.478248 -8.594145 -7.125000 0.000000 0.000000 70.995689 1.716628 17.944214 -12.864578 22.650358 -3.234854 0.204705 -0.659111 -1.250022 7.125000 0.000000 0.000000 
50.794184 17.233175 -8.652140 -9.398446 -82.716427 10.615963 -19.787646 0.142008 -1.496508 0.133854 4.361454 14.131547 -0.167828 3.531341 -8.173999 0.206400 -2.925200 -8.070500 30.203642 3.723951 -5.679958 -3.351161 -9.650568 29.225827 -1.544785 -2.544292 -24.802780 -0.936100 -6.162800 17.257500 0.776127 -1.193395 -0.881751 0.388696 -0.979826 7.906976 7.122640 -5.209193 9.440144 3.053300 -2.318600 6.012700 -77.111575 -4.495317 22.030350 12.066383 -19.830591 -3.039188 -1.207556 -0.478638 -8.603999 -7.125000 0.000000 0.000000 71.010126 1.729632 17.949232 -12.873564 22.659960 -3.236762 0.204756 -0.657534 -1.313621 7.125000 0.000000 0.000000 
50.789580 17.232868 -8.650708 -9.440844 -82.722584 10.651274 -19.786511 0.159465 -1.475229 0.134112 4.360138 14.131063 -0.165970 3.521622 -8.188214 0.207200 -2.930600 -8.085600 30.206800 3.721747 -5.637797 -3.348640 -9.642607 29.204802 -1.541990 -2.620819 -24.825120 -0.904500 -6.060700 16.960700 0.776753 -1.193820 -0.874468 0.397583 -0.982059 7.939920 7.119608 -5.203565 9.433336 3.049200 -2.315300 6.006200 -77.118284 -4.505436 22.042280 12.071039 -19.837963 -3.041203 -1.207769 -0.479166 -8.619515 -7.125000 0.000000 0.000000 71.023284 1.736271 17.957553 -12.884734 22.673054 -3.239334 0.204752 -0.655739 -1.375982 7.125000 0.000000 0.000000 
50.785795 17.232663 -8.647843 -9.171683 -82.736119 10.390583 -19.837883 0.170234 -1.456319 0.131996 4.354737 14.114683 -0.165242 3.520960 -8.199892 0.208000 -2.936500 -8.102100 30.147331 3.683682 -5.631050 -3.348927 -9.638085 29.196662 -1.539128 -2.640237 -24.812802 -0.881200 -5.984200 16.738500 0.773590 -1.195734 -0.869261 0.401276 -0.984335 7.968413 7.115538 -5.198115 9.425675 3.045000 -2.312300 5.998500 -77.129684 -4.509248 22.055456 12.079306 -19.849034 -3.044106 -1.207522 -0.479752 -8.637120 -7.125000 0.000000 0.000000 71.033488 1.740100 17.968813 -12.896061 22.686843 -3.241926 0.204700 -0.653707 -1.433063 7.125000 0.000000 0.000000 
50.783237 17.232663 -8.645285 -9.119746 -82.747501 10.355418 -19.856982 0.173327 -1.450226 0.130105 4.348224 14.095758 -0.165885 3.530591 -8.208798 0.208300 -2.938400 -8.107300 30.126900 3.682767 -5.639205 -3.348917 -9.637273 29.194124 -1.537674 -2.649707 -24.807387 -0.870200 -5.947800 16.633000 0.772973 -1.197613 -0.867630 0.404540 -0.985838 7.976236 7.113629 -5.191268 9.416055 3.043300 -2.309200 5.987200 -77.145385 -4.499502 22.070051 12.091159 -19.864206 -3.048294 -1.207118 -0.480524 -8.655906 -7.125000 0.000000 0.000000 71.045501 1.733644 17.978836 -12.907724 22.700476 -3.244485 0.204456 -0.651570 -1.483508 7.125000 0.000000 0.000000 
50.781600 17.232765 -8.643034 -9.169793 -82.758977 10.426427 -19.861254 0.169687 -1.453849 0.128686 4.343362 14.081432 -0.167264 3.546769 -8.218206 0.208700 -2.941200 -8.115000 30.125555 3.703657 -5.653763 -3.348689 -9.638056 29.193726 -1.537420 -2.647299 -24.805577 -0.868800 -5.943100 16.619500 0.773450 -1.199233 -0.868120 0.407988 -0.986870 7.972733 7.114187 -5.184073 9.408366 3.043600 -2.306000 5.978200 -77.162105 -4.485466 22.083724 12.103711 -19.879653 -3.052436 -1.206441 -0.481038 -8.672247 -7.125000 0.000000 0.000000 71.058133 1.722991 17.992114 -12.919541 22.713597 -3.246619 0.204168 -0.649304 -1.531526 7.125000 0.000000 0.000000 
50.779963 17.232868 -8.640784 -9.221214 -82.769790 10.498448 -19.865693 0.164642 -1.465246 0.128806 4.343833 14.081615 -0.167549 3.557188 -8.234822 0.208900 -2.942500 -8.118800 30.123918 3.721758 -5.666939 -3.347970 -9.637890 29.190334 -1.537024 -2.643491 -24.801256 -0.867900 -5.940200 16.611100 0.773939 -1.200496 -0.869315 0.411977 -0.987736 7.966356 7.115040 -5.175012 9.404256 3.044300 -2.301900 5.971600 -77.179676 -4.467664 22.098089 12.116649 -19.895574 -3.056567 -1.205403 -0.481259 -8.683976 -7.125000 0.000000 0.000000 71.070985 1.709139 18.005350 -12.930219 22.725311 -3.248409 0.203794 -0.646999 -1.579001 7.125000 0.000000 0.000000 
50.778224 17.233072 -8.638430 -9.269536 -82.780064 10.567435 -19.870646 0.159755 -1.480506 0.129417 4.346886 14.088565 -0.167218 3.563361 -8.253129 0.208900 -2.942900 -8.119900 30.121195 3.736947 -5.679819 -3.347090 -9.637127 29.185494 -1.536546 -2.639915 -24.796120 -0.866700 -5.936000 16.598800 0.773918 -1.199940 -0.870618 0.414706 -0.987691 7.960656 7.117251 -5.167708 9.404222 3.045700 -2.298400 5.969700 -77.193454 -4.456048 22.115548 12.126477 -19.907236 -3.059366 -1.204405 -0.481395 -8.694874 -7.125000 0.000000 0.000000 71.085849 1.698252 18.014112 -12.937341 22.732756 -3.249188 0.203516 -0.645004 -1.621866 7.125000 0.000000 0.000000 
50.776587 17.233277 -8.636077 -9.320675 -82.790513 10.639268 -19.875229 0.157895 -1.498221 0.130409 4.351074 14.098652 -0.166297 3.564362 -8.271111 0.208400 -2.939500 -8.110400 30.118191 3.750078 -5.692779 -3.345979 -9.636137 29.179689 -1.535806 -2.634931 -24.788625 -0.865600 -5.932300 16.588100 0.773259 -1.196733 -0.871697 0.414663 -0.986316 7.957935 7.119917 -5.162155 9.408642 3.046300 -2.295300 5.973400 -77.201444 -4.449995 22.139219 12.135108 -19.917229 -3.061628 -1.203438 -0.481641 -8.705135 -7.125000 0.000000 0.000000 71.103420 1.692984 18.017000 -12.939855 22.734676 -3.248590 0.203330 -0.643540 -1.659658 7.125000 0.000000 0.000000 
50.774847 17.233482 -8.633622 -9.364045 -82.800328 10.704456 -19.881011 0.154733 -1.518344 0.131544 4.356286 14.111278 -0.165155 3.563874 -8.289558 0.207200 -2.930900 -8.086400 30.113465 3.760610 -5.706787 -3.344683 -9.634724 29.172740 -1.535113 -2.628516 -24.780082 -0.864700 -5.929600 16.580300 0.772090 -1.192847 -0.872051 0.412634 -0.984749 7.961447 7.122108 -5.158911 9.416025 3.046200 -2.292800 5.982400 -77.203530 -4.456587 22.163603 12.140510 -19.922503 -3.062659 -1.202702 -0.482069 -8.714767 -7.125000 0.000000 0.000000 71.121293 1.698901 18.015299 -12.937074 22.730409 -3.246646 0.203239 -0.642817 -1.686510 7.125000 0.000000 0.000000 
